<?xml version="1.0" encoding="UTF-8"?>
<svg id="Layer_1" data-name="Layer 1" xmlns="http://www.w3.org/2000/svg" viewBox="0 0 2995.66 1021.68">
  <defs>
    <style>
      .cls-1 {
        letter-spacing: -.03em;
      }

      .cls-2, .cls-3, .cls-4, .cls-5 {
        stroke: #000;
        stroke-miterlimit: 10;
      }

      .cls-6 {
        letter-spacing: -.02em;
      }

      .cls-3 {
        stroke-width: .75px;
      }

      .cls-4 {
        fill: none;
        stroke-width: 2px;
      }

      .cls-5 {
        stroke-width: .5px;
      }

      .cls-7 {
        letter-spacing: -.09em;
      }

      .cls-8 {
        letter-spacing: -.04em;
      }

      .cls-9 {
        letter-spacing: -.13em;
      }

      .cls-10 {
        font-family: Synthemesc-Regular, Synthemesc;
        font-size: 72px;
      }
    </style>
  </defs>
  <rect x="10.19" y="785.79" width="46.68" height="46.68"/>
  <rect x="56.88" y="832.47" width="46.68" height="46.68"/>
  <rect x="103.56" y="785.79" width="46.68" height="46.68"/>
  <rect x="150.25" y="832.47" width="46.68" height="46.68"/>
  <rect x="196.66" y="785.79" width="46.68" height="46.68"/>
  <rect x="243.35" y="832.47" width="46.68" height="46.68"/>
  <rect x="290.03" y="785.79" width="46.68" height="46.68"/>
  <rect x="336.72" y="832.47" width="46.68" height="46.68"/>
  <rect x="383.4" y="785.79" width="46.68" height="46.68"/>
  <rect x="430.08" y="832.47" width="46.68" height="46.68"/>
  <rect x="476.77" y="785.79" width="46.68" height="46.68"/>
  <rect x="523.45" y="832.47" width="46.68" height="46.68"/>
  <rect x="569.87" y="785.79" width="46.68" height="46.68"/>
  <rect x="616.55" y="832.47" width="46.68" height="46.68"/>
  <rect x="663.24" y="785.79" width="46.68" height="46.68"/>
  <rect x="709.92" y="832.47" width="46.68" height="46.68"/>
  <rect x="756.6" y="785.79" width="46.68" height="46.68"/>
  <rect x="803.29" y="832.47" width="46.68" height="46.68"/>
  <rect x="849.97" y="785.79" width="46.68" height="46.68"/>
  <rect x="896.66" y="832.47" width="46.68" height="46.68"/>
  <rect x="942.63" y="785.79" width="46.68" height="46.68"/>
  <rect x="989.32" y="832.47" width="46.68" height="46.68"/>
  <rect x="1036" y="785.79" width="46.68" height="46.68"/>
  <rect x="1082.68" y="832.47" width="46.68" height="46.68"/>
  <rect x="1129.1" y="785.79" width="46.68" height="46.68"/>
  <rect x="1175.79" y="832.47" width="46.68" height="46.68"/>
  <rect x="1222.47" y="785.79" width="46.68" height="46.68"/>
  <rect x="1269.15" y="832.47" width="46.68" height="46.68"/>
  <rect x="1315.84" y="785.79" width="46.68" height="46.68"/>
  <rect x="1362.52" y="832.47" width="46.68" height="46.68"/>
  <rect x="1409.2" y="785.79" width="46.68" height="46.68"/>
  <rect x="1455.89" y="832.47" width="46.68" height="46.68"/>
  <rect x="1502.31" y="785.79" width="46.68" height="46.68"/>
  <rect x="1548.99" y="832.47" width="46.68" height="46.68"/>
  <rect x="1595.68" y="785.79" width="46.68" height="46.68"/>
  <rect x="1642.36" y="832.47" width="46.68" height="46.68"/>
  <rect x="1689.04" y="785.79" width="46.68" height="46.68"/>
  <rect x="1735.73" y="832.47" width="46.68" height="46.68"/>
  <rect x="1782.41" y="785.79" width="46.68" height="46.68"/>
  <rect x="1829.09" y="832.47" width="46.68" height="46.68"/>
  <rect x="1875.78" y="785.79" width="46.68" height="46.68"/>
  <rect x="1922.46" y="832.47" width="46.68" height="46.68"/>
  <rect x="1969.15" y="785.79" width="46.68" height="46.68"/>
  <rect x="2015.83" y="832.47" width="46.68" height="46.68"/>
  <rect x="2062.25" y="785.79" width="46.68" height="46.68"/>
  <rect x="2108.93" y="832.47" width="46.68" height="46.68"/>
  <rect x="2155.62" y="785.79" width="46.68" height="46.68"/>
  <rect x="2202.3" y="832.47" width="46.68" height="46.68"/>
  <rect x="2248.98" y="785.79" width="46.68" height="46.68"/>
  <rect x="2295.67" y="832.47" width="46.68" height="46.68"/>
  <rect x="2342.35" y="785.79" width="46.68" height="46.68"/>
  <rect x="2389.03" y="832.47" width="46.68" height="46.68"/>
  <rect x="2435.45" y="785.79" width="46.68" height="46.68"/>
  <rect x="2482.14" y="832.47" width="46.68" height="46.68"/>
  <rect x="2528.82" y="785.79" width="46.68" height="46.68"/>
  <rect x="2575.51" y="832.47" width="46.68" height="46.68"/>
  <rect x="2622.19" y="785.79" width="46.68" height="46.68"/>
  <rect x="2668.87" y="832.47" width="46.68" height="46.68"/>
  <rect x="2715.56" y="785.79" width="46.68" height="46.68"/>
  <rect x="2762.24" y="832.47" width="46.68" height="46.68"/>
  <rect x="2808.92" y="785.79" width="46.68" height="46.68"/>
  <rect x="2855.61" y="832.47" width="46.68" height="46.68"/>
  <rect x="2902.29" y="785.79" width="46.68" height="46.68"/>
  <rect x="2948.98" y="832.47" width="46.68" height="46.68"/>
  <rect y="140.19" width="46.68" height="46.68"/>
  <rect x="46.68" y="186.87" width="46.68" height="46.68"/>
  <rect x="93.37" y="140.19" width="46.68" height="46.68"/>
  <rect x="140.05" y="186.87" width="46.68" height="46.68"/>
  <rect x="186.47" y="140.19" width="46.68" height="46.68"/>
  <rect x="233.15" y="186.87" width="46.68" height="46.68"/>
  <rect x="279.84" y="140.19" width="46.68" height="46.68"/>
  <rect x="326.52" y="186.87" width="46.68" height="46.68"/>
  <rect x="373.21" y="140.19" width="46.68" height="46.68"/>
  <rect x="419.89" y="186.87" width="46.68" height="46.68"/>
  <rect x="466.57" y="140.19" width="46.68" height="46.68"/>
  <rect x="513.26" y="186.87" width="46.68" height="46.68"/>
  <rect x="559.68" y="140.19" width="46.68" height="46.68"/>
  <rect x="606.36" y="186.87" width="46.68" height="46.68"/>
  <rect x="653.04" y="140.19" width="46.68" height="46.68"/>
  <rect x="699.73" y="186.87" width="46.68" height="46.68"/>
  <rect x="746.41" y="140.19" width="46.68" height="46.68"/>
  <rect x="793.09" y="186.87" width="46.68" height="46.68"/>
  <rect x="839.78" y="140.19" width="46.68" height="46.68"/>
  <rect x="886.46" y="186.87" width="46.68" height="46.68"/>
  <rect x="932.44" y="140.19" width="46.68" height="46.68"/>
  <rect x="979.12" y="186.87" width="46.68" height="46.68"/>
  <rect x="1025.81" y="140.19" width="46.68" height="46.68"/>
  <rect x="1072.49" y="186.87" width="46.68" height="46.68"/>
  <rect x="1118.91" y="140.19" width="46.68" height="46.68"/>
  <rect x="1165.59" y="186.87" width="46.68" height="46.68"/>
  <rect x="1212.28" y="140.19" width="46.68" height="46.68"/>
  <rect x="1258.96" y="186.87" width="46.68" height="46.68"/>
  <rect x="1305.64" y="140.19" width="46.68" height="46.68"/>
  <rect x="1352.33" y="186.87" width="46.68" height="46.68"/>
  <rect x="1399.01" y="140.19" width="46.68" height="46.68"/>
  <rect x="1445.69" y="186.87" width="46.68" height="46.68"/>
  <rect x="1492.11" y="140.19" width="46.68" height="46.68"/>
  <rect x="1538.8" y="186.87" width="46.68" height="46.68"/>
  <rect x="1585.48" y="140.19" width="46.68" height="46.68"/>
  <rect x="1632.17" y="186.87" width="46.68" height="46.68"/>
  <rect x="1678.85" y="140.19" width="46.68" height="46.68"/>
  <rect x="1725.53" y="186.87" width="46.68" height="46.68"/>
  <rect x="1772.22" y="140.19" width="46.68" height="46.68"/>
  <rect x="1818.9" y="186.87" width="46.68" height="46.68"/>
  <rect x="1865.58" y="140.19" width="46.68" height="46.68"/>
  <rect x="1912.27" y="186.87" width="46.68" height="46.68"/>
  <rect x="1958.95" y="140.19" width="46.68" height="46.68"/>
  <rect x="2005.64" y="186.87" width="46.68" height="46.68"/>
  <rect x="2052.05" y="140.19" width="46.68" height="46.68"/>
  <rect x="2098.74" y="186.87" width="46.68" height="46.68"/>
  <rect x="2145.42" y="140.19" width="46.68" height="46.68"/>
  <rect x="2192.11" y="186.87" width="46.68" height="46.68"/>
  <rect x="2238.79" y="140.19" width="46.68" height="46.68"/>
  <rect x="2285.47" y="186.87" width="46.68" height="46.68"/>
  <rect x="2332.16" y="140.19" width="46.68" height="46.68"/>
  <rect x="2378.84" y="186.87" width="46.68" height="46.68"/>
  <rect x="2425.26" y="140.19" width="46.68" height="46.68"/>
  <rect x="2471.94" y="186.87" width="46.68" height="46.68"/>
  <rect x="2518.63" y="140.19" width="46.68" height="46.68"/>
  <rect x="2565.31" y="186.87" width="46.68" height="46.68"/>
  <rect x="2612" y="140.19" width="46.68" height="46.68"/>
  <rect x="2658.68" y="186.87" width="46.68" height="46.68"/>
  <rect x="2705.36" y="140.19" width="46.68" height="46.68"/>
  <rect x="2752.05" y="186.87" width="46.68" height="46.68"/>
  <rect x="2798.73" y="140.19" width="46.68" height="46.68"/>
  <rect x="2845.41" y="186.87" width="46.68" height="46.68"/>
  <rect x="2892.1" y="140.19" width="46.68" height="46.68"/>
  <rect x="2938.78" y="186.87" width="46.68" height="46.68"/>
  <text class="cls-10" transform="translate(1025.09 100.91)"><tspan class="cls-7" x="0" y="0">F</tspan><tspan x="30.24" y="0">ami</tspan><tspan class="cls-1" x="156.89" y="0">l</tspan><tspan x="189" y="0">y O</tspan><tspan class="cls-8" x="292.68" y="0">w</tspan><tspan x="346.68" y="0">ned &amp; Op</tspan><tspan class="cls-6" x="646.98" y="0">e</tspan><tspan x="683.92" y="0">rated</tspan></text>
  <g>
    <g>
      <path class="cls-5" d="M1154.6,336.39v-58.94c0-2.28.63-3.68,1.77-4.69l16.35-13.82c.89-.76,2.28-1.14,4.06-1.14h19.9c4.06,0,5.83,1.77,5.83,5.83v57.8c0,1.52.38,2.79,2.03,3.55v-47.53c0-2.28.51-3.68,1.52-4.56l.13-.13,16.48-13.82c.89-.76,2.15-1.14,4.06-1.14h19.27c4.06,0,5.83,1.77,5.83,5.83v62.74c0,7.86-1.9,14.46-7.6,19.27l-16.48,13.69c-5.96,5.07-15.97,7.99-32.7,7.99-32.95,0-40.43-14.96-40.43-30.93ZM1250.55,263.64c0-3.17-1.39-4.56-4.56-4.56h-19.27c-3.3,0-4.56,1.39-4.56,4.56v57.8c0,3.42-1.52,5.95-10.52,5.95s-10.39-2.53-10.39-5.95v-57.8c0-3.17-1.39-4.56-4.56-4.56h-19.9c-3.17,0-4.56,1.39-4.56,4.56v62.74c0,15.47,7.73,25.86,39.17,25.86s39.17-10.39,39.17-25.86v-62.74Z"/>
      <path class="cls-5" d="M1288.84,364.15c-.76.75-2.15,1.26-3.93,1.26h-19.01c-4.06,0-5.83-1.77-5.83-5.82v-82.14c0-2.28.63-3.68,1.77-4.69l16.35-13.82c.89-.76,2.28-1.14,4.06-1.14h13.18c3.68,0,5.96,1.01,8.49,3.8l8.75,10.14,15.34-12.8c.88-.76,2.28-1.14,4.06-1.14h19.01c4.06,0,5.84,1.77,5.84,5.83v82.13c0,2.28-.64,3.68-1.78,4.69l-16.47,13.69c-.77.75-2.16,1.26-3.93,1.26h-19.01c-4.06,0-5.83-1.77-5.83-5.82v-15.09l-2.79-3.43v4.69c0,2.28-.63,3.68-1.77,4.69l-16.48,13.69ZM1305.83,345.77v-41.83l21.68,26.24v15.59c0,3.17,1.39,4.56,4.56,4.56h19.01c3.17,0,4.56-1.39,4.56-4.56v-82.13c0-3.17-1.39-4.56-4.56-4.56h-19.01c-3.17,0-4.56,1.39-4.56,4.56v27l-24.59-28.14c-2.15-2.53-4.18-3.42-7.48-3.42h-13.18c-3.17,0-4.56,1.39-4.56,4.56v82.13c0,3.17,1.39,4.56,4.56,4.56h19.01c3.17,0,4.56-1.39,4.56-4.56Z"/>
      <path class="cls-5" d="M1396.85,365.41c-22.31,0-32.45-12.55-32.45-30.93v-35.61c0-9.38,2.66-16.1,7.99-20.66l16.47-13.82c5.2-4.44,13.31-6.59,24.34-6.59h30.93c4.06,0,5.84,1.77,5.84,5.83v15.34c0,2.28-.64,3.68-1.78,4.69l-16.47,13.69c-.77.76-2.16,1.27-3.93,1.27h-15.59v21.42c0,3.55,2.29,4.81,6.47,4.81h25.47c4.06,0,5.84,1.78,5.84,5.84v15.08c0,2.28-.64,3.68-1.78,4.69l-16.47,13.69c-.77.75-2.16,1.26-3.93,1.26h-30.93ZM1448.69,345.77v-15.08c0-3.17-1.39-4.56-4.56-4.56h-25.47c-5.32,0-7.73-1.9-7.73-6.08v-30.17c0-4.3,2.41-6.33,7.73-6.33h25.47c3.17,0,4.56-1.39,4.56-4.56v-15.34c0-3.17-1.39-4.56-4.56-4.56h-30.93c-21.29,0-31.17,8.24-31.17,25.99v39.42c0,17.62,9.88,25.86,31.17,25.86h30.93c3.17,0,4.56-1.39,4.56-4.56Z"/>
      <path class="cls-5" d="M1463.41,365.41c-4.06,0-5.84-1.77-5.84-5.82v-82.14c0-2.28.64-3.68,1.78-4.69l16.35-13.82c.89-.76,2.28-1.14,4.06-1.14h19.65c4.06,0,5.82,1.77,5.82,5.83v51.58l.26-.25,16.35-13.82c.89-.76,2.28-1.14,4.06-1.14h18.38c4.06,0,5.84,1.78,5.84,5.84v39.92c0,2.28-.64,3.68-1.78,4.69l-16.47,13.69c-.77.75-2.16,1.26-3.93,1.26h-64.51ZM1548.84,345.77v-39.92c0-3.17-1.39-4.56-4.56-4.56h-18.38c-3.17,0-4.56,1.39-4.56,4.56v20.53h-17.36v-62.74c0-3.17-1.4-4.56-4.56-4.56h-19.65c-3.17,0-4.56,1.39-4.56,4.56v82.13c0,3.17,1.4,4.56,4.56,4.56h64.51c3.17,0,4.56-1.39,4.56-4.56Z"/>
      <path class="cls-5" d="M1563.69,365.41c-4.06,0-5.84-1.77-5.84-5.82v-82.14c0-2.28.64-3.68,1.78-4.69l16.35-13.82c.89-.76,2.28-1.14,4.06-1.14h58.81c4.06,0,5.83,1.77,5.83,5.83v14.83c0,2.28-.64,3.68-1.77,4.69l-10.9,9c1.65.88,2.41,2.53,2.41,5.19v13.56c0,2.28-.63,3.67-1.77,4.69l-11.28,9.51h17.49c4.06,0,5.83,1.77,5.83,5.82v14.83c0,2.28-.64,3.68-1.77,4.69l-16.48,13.69c-.76.75-2.16,1.26-3.93,1.26h-58.81ZM1643.41,345.77v-14.83c0-3.17-1.4-4.56-4.56-4.56h-34.98v-10.89h24.72c3.17,0,4.56-1.4,4.56-4.56v-13.56c0-3.17-1.4-4.56-4.56-4.56h-24.72v-9.76h34.98c3.17,0,4.56-1.39,4.56-4.56v-14.83c0-3.17-1.4-4.56-4.56-4.56h-58.81c-3.17,0-4.56,1.39-4.56,4.56v82.13c0,3.17,1.4,4.56,4.56,4.56h58.81c3.17,0,4.56-1.39,4.56-4.56Z"/>
    </g>
    <path class="cls-5" d="M1060.08,651.5c-8.5,0-12.22-3.71-12.22-12.21v-247.82c0-4.78,1.33-7.71,3.72-9.83l34.27-28.96c1.86-1.59,4.78-2.39,8.5-2.39h41.18c8.5,0,12.22,3.72,12.22,12.22v183.8l.53-.53,34.27-28.96c1.86-1.6,4.78-2.39,8.5-2.39h38.52c8.5,0,12.22,3.72,12.22,12.22v83.68c0,4.78-1.33,7.71-3.72,9.83l-34.53,28.69c-1.59,1.59-4.52,2.65-8.24,2.65h-135.22ZM1239.13,610.33v-83.68c0-6.64-2.92-9.56-9.57-9.56h-38.52c-6.64,0-9.57,2.92-9.57,9.56v43.04h-36.39v-207.18c0-6.64-2.92-9.56-9.56-9.56h-41.18c-6.64,0-9.57,2.92-9.57,9.56v247.82c0,6.64,2.92,9.56,9.57,9.56h135.22c6.64,0,9.57-2.92,9.57-9.56Z"/>
    <path class="cls-5" d="M1264.34,651.5c-8.5,0-12.22-3.71-12.22-12.21v-172.15c0-4.78,1.33-7.71,3.72-9.83l34.27-28.96c1.86-1.59,4.78-2.39,8.5-2.39h123.26c8.5,0,12.22,3.72,12.22,12.22v31.09c0,4.78-1.33,7.7-3.72,9.83l-22.85,18.86c3.45,1.86,5.05,5.32,5.05,10.89v28.43c0,4.78-1.33,7.7-3.72,9.83l-23.64,19.93h36.66c8.5,0,12.22,3.71,12.22,12.21v31.09c0,4.78-1.33,7.71-3.72,9.83l-34.54,28.69c-1.59,1.59-4.52,2.65-8.24,2.65h-123.26ZM1431.44,610.33v-31.09c0-6.64-2.92-9.56-9.56-9.56h-73.32v-22.84h51.8c6.64,0,9.57-2.92,9.57-9.56v-28.43c0-6.64-2.92-9.56-9.57-9.56h-51.8v-20.46h73.32c6.64,0,9.56-2.92,9.56-9.56v-31.09c0-6.64-2.92-9.56-9.56-9.56h-123.26c-6.64,0-9.57,2.92-9.57,9.56v172.15c0,6.64,2.92,9.56,9.57,9.56h123.26c6.64,0,9.56-2.92,9.56-9.56Z"/>
    <path class="cls-5" d="M1529.17,655.49c-69.6,0-85.27-31.35-85.27-64.82v-82.62c0-16.47,3.99-30.55,15.94-40.65l34.53-28.69c12.49-10.62,33.47-16.74,69.07-16.74,69.61,0,85.01,23.65,85.01,57.12v90.59c0,16.47-3.99,30.28-15.94,40.38l-34.27,28.69c-12.48,10.63-33.74,16.74-69.07,16.74ZM1645.8,479.1c0-32.41-15.94-54.46-82.36-54.46s-82.62,22.05-82.62,54.46v90.59c0,32.41,16.21,54.2,82.62,54.2s82.36-21.78,82.36-54.2v-90.59ZM1541.12,488.66c0-6.91,3.19-12.22,22.31-12.22s22.32,5.31,22.32,12.22v71.46c0,7.17-2.92,12.49-22.32,12.49s-22.31-5.31-22.31-12.49v-71.46ZM1548.83,568.09v-50.48c0-3.45-1.06-6.11-5.05-7.71v50.21c0,3.45,1.06,6.11,5.05,7.97Z"/>
    <path class="cls-5" d="M1703.14,639.29v-31.09c0-4.78,1.33-7.71,3.72-9.83l26.56-22.31c-18.86-5.85-30.28-18.07-30.28-43.84v-27.89c0-15.94,5.31-28.43,15.4-36.93l34.53-28.96c9.57-7.97,23.91-12.49,41.97-12.49h74.39c8.5,0,12.22,3.72,12.22,12.22v31.62c0,4.78-1.33,7.71-3.72,9.83l-23.91,19.93c22.58,5.05,37.19,17,37.19,45.69v27.9c0,15.94-5.31,28.43-15.68,36.93l-34.27,28.69c-9.83,8.24-24.18,12.75-41.97,12.75h-83.94c-8.5,0-12.22-3.71-12.22-12.21ZM1888.56,573.14v-27.9c0-29.75-16.47-40.38-41.44-44.1l-39.59-5.31c-4.52-.53-7.17-3.72-7.17-8.5s2.65-7.97,7.17-7.97h61.9c6.64,0,9.56-2.92,9.56-9.56v-31.62c0-6.64-2.92-9.56-9.56-9.56h-74.39c-34.53,0-54.99,16.47-54.99,46.76v27.9c0,29.75,16.21,40.38,41.18,44.1l39.85,5.58c4.52.53,6.91,2.92,6.91,9.03,0,4.25-2.39,7.71-6.91,7.71h-71.46c-6.64,0-9.57,2.92-9.57,9.56v31.09c0,6.64,2.92,9.56,9.57,9.56h83.94c34.27,0,54.99-16.47,54.99-46.76Z"/>
    <rect class="cls-4" x="1175.52" y="373.55" width="465.92" height="21.39" rx="2.05" ry="2.05"/>
    <path class="cls-5" d="M1173.49,373.55v21.38h467.96s-11.28,13.6-11.28,13.6c-1.15,1.38-2.85,2.18-4.64,2.18h-464.89c-3.33,0-6.04-2.7-6.04-6.04v-13.85c0-1.89.89-3.67,2.4-4.82l16.49-12.46Z"/>
    <path class="cls-3" d="M1885.18,661.71h-791.38c-4.67,0-9.37,1.24-12.94,4.26-7.83,6.62-17.9,16.66-27.61,26.75-3.05,3.17-5.39,9.45-5.39,13.84v23.62c0,5.09,4.16,9.25,9.25,9.25h804.52c4.34-1.99,14.06-11.52,15.86-14.81,2.79-5.08,13.73-14.8,13.73-17.93v-38.95c0-3.33-2.7-6.04-6.04-6.04ZM1888.75,704.84c0,3.33-2.7,6.04-6.04,6.04h-791.89c-3.33,0-6.04-2.7-6.04-6.04v-35.91c0-3.33,2.7-6.04,6.04-6.04h791.89c3.33,0,6.04,2.7,6.04,6.04v35.91Z"/>
    <path class="cls-2" d="M1852.86,332.36c-8.48-16.35-61.23-72.55-100.56-72.32-14.92.09-29.75,17.92-41.49,26.87-3.92,2.99-8.65,9.1-15.2,18.76-7.87,11.6-12.86,25.44-18.76,38.16-5.75,12.4-23.85,81.55-19.04,121.75,1.28,10.68,10.91,20.03,17.92,6.62v-.26c2.11-3.38,4.95-7.16,10.33-9.98,5.59-2.93,13.47-2.68,15.51-3.71,3.38-1.7,4.15-5.12,6.03-8.41,4.12-7.19,19.61-6.34,26.6-10.81,4.65-2.98,3.62-12.89,9.67-16.08,7.4-3.9,19.29-7.58,51.74-9.45,10.46-.6,23.83,1.23,30.17-2.26,22.24-12.26,35.98-22.26,37.95-32.88,2.97-16.06-2.74-30.32-10.87-45.98ZM1859.89,383.72c-8.57,12.87-23.15,9.15-35.84,7.13-19.23-3.07-40.87-.5-54.69,13.23-3.92,3.89-7.13,8.6-11.79,11.58-6.99,4.47-21.83,3.94-21.17,12.21.56,7.06-1.98,10.35-6.9,11-.88.12-3.04.21-5.09-1.77-3.2-3.1-3.87-6.41-3.43-10.21.19-1.62-1.86-2.57-2.93-1.35-5.74,6.58-10.12,4.1-11.58,6.38-4.57,7.16-.41,16.33-5.06,22.2-5.37,6.78-19.47,6.68-19.57-16.41-.14-29.41,2.94-71.47,15.47-101.32,6.66-15.89,20.41-40.91,29.08-55.8,3.48-5.97,7.4-11.94,13.23-15.63,13.1-8.3,30.33-2.31,44.06,4.9,16.31,8.57,40.17,28.7,52.95,41.96,14.65,15.2,25.45,34.67,27.03,55.93.41,5.58-.66,11.32-3.76,15.98Z"/>
    <g>
      <path d="M1720.61,399.1c-3.04.89-4.8,6.64-11.34,8.55-3.1.91-5.12-.37-5.99-3.34-3.01-10.31,6.11-18.85,3.75-26.91-1.41-4.82-4.86-6.32-9.02-5.11-5.48,1.6-6.54,6.58-5.15,11.33,5.83,19.95,1.21,25.97,4.59,37.53.6,2.05,2.14,3.39,5.51,2.41,15.39-4.5,25.23-13.04,22.97-20.77-.66-2.25-3.26-4.28-5.31-3.68Z"/>
      <path d="M1757.28,395.19c-1.25.36-1.58,1.94-2.58,3.76-.52.95-3.2,4.19-6.14,5.04-1.36.4-3.61.26-4.12-1.5-1.36-4.64,14.98-3.34,10.27-19.45-2.54-8.71-8.09-12.36-16.29-9.96-11.87,3.47-14.4,11.63-11.18,22.66,3.55,12.16,11.36,18.71,21.88,15.64,5.99-1.75,11.94-7.23,9.59-15.26-.22-.74-.76-1.13-1.44-.93ZM1741.62,395.35c-.55-1.87.85-4.24,4.35-5.26,1.53-.45,3.55-.24,4.08,1.57.68,2.32-2.65,3.97-5.7,4.86-1.42.41-2.46-.2-2.74-1.16Z"/>
      <path d="M1775.57,361.99c-9.74,2.85-13.19,8.13-10.6,17,1.62,5.53,6.34,10.31,16.35,7.39,9.27-2.71,11.29-10.9,9.75-16.17-2.18-7.47-8.37-10.29-15.5-8.21ZM1782.26,380.67c-2.27.66-3.82-.91-4.38-2.85-.6-2.07-.07-4.47,2.53-5.23,2.73-.8,4.66.81,5.24,2.81.58,2-.32,4.36-3.39,5.26Z"/>
      <path d="M1800.24,351.77c-4.83,1.41-6.29,5.84-5.53,8.46,2.01,6.88,6.27,7.49,7.59,11.99.29.98.34,2.39.68,3.53.5,1.72,1.81,2.85,3.7,2.3,4.91-1.43,7.18-10.98,5.22-17.69-1.58-5.4-6.34-10.14-11.65-8.59Z"/>
      <path d="M1852.24,359.72c-4.02-13.77-18.49-8-20.29-14.17-.51-1.75.87-3.29,2.43-3.74,6.81-1.99,6.86,3.21,9.85,2.34,1.3-.38,1.94-1.83,1.48-3.39-1.71-5.85-8.74-6.47-15.81-4.41-8.51,2.49-11.7,9.2-9.84,15.57,3.83,13.12,13.43,6.37,15.52,13.52.63,2.14-.55,3.9-2.57,4.49-5.53,1.61-6.1-2.3-8.12-1.72-2.08.61-2.43,3.74-1.79,5.95,1.9,6.5,8.77,9.99,18.19,7.24,7.93-2.32,14.61-9.13,10.95-21.67Z"/>
      <path d="M1721.59,369.21c12.12-4.59,9.49-12.39,5.87-21.94-2.11-5.57-5.63-11.27-10.63-9.38-3.35,1.27-3.74,4.08-2.77,6.64,1.57,4.15,6.56,8.53,7.55,11.13,1.43,3.79,1.3,6.41-1.94,7.64-3,1.13-5.37-.36-6.85-4.27-1.33-3.51.37-8.22-1.96-14.37-1.14-3-2.94-3.49-5.98-2.34-5.53,2.09-3.62,10.21-1.77,15.11,3.17,8.37,8.34,15.61,18.48,11.77Z"/>
      <path d="M1754.98,347.26c-3.72-9.82-4.41-17.26-6.11-21.75-1.46-3.87-4.34-6.12-7.66-4.86-2.84,1.08-4.45,4.25-2.9,8.35,2.7,7.13,8.99,6.16,11.32,12.33,1.08,2.86.8,4.32-.24,4.71-2.32.88-4.74-2.89-6.81-5.5-8.87-11.21-14.78-14.04-18.96-12.46-1.47.56-2.42,1.81-1.89,3.22.87,2.3,3.39,2.05,6.38,7.85,1.02,1.92,1.92,3.89,2.62,5.74,2.72,7.18,2.66,10.68,2.57,12.89-.08,2.53-.05,5.47.82,7.77.94,2.47,3.4,4.3,6.81,3.01,2.46-.93,4.78-4.05,3.44-7.59-2.17-5.72-7.33-6.21-10.47-14.52-.64-1.68-.76-3.56.67-4.1,4.01-1.52,11.47,12.98,17.87,16.98,3.02,1.87,6.31,2.74,8.17,2.04.91-.34,1.58-1.3,1.24-2.2-.7-1.85-3.45-2.99-6.83-11.91Z"/>
      <path d="M1773.45,354.37c3.57-1.35,8.12-7.59,5.84-13.63-.31-.82-1.08-1.72-1.78-1.46-1.25.47-2.15,4.24-4.36,5.08-2.21.84-5.35-1.71-7.16-6.48-1.65-4.36-1.71-10.67,1.65-11.94,1.62-.61,3.45-.06,4.35-.41.62-.23.68-1.03.4-1.76-1.46-3.86-6.63-4.03-9.26-3.04-7.64,2.89-8.5,14.22-5.32,22.62,2.8,7.4,9.41,13.36,15.63,11Z"/>
      <path d="M1783.9,312.7c-4.34,1.64-4.95,5.5-3.62,9.01,5.58,14.74,2.13,19.67,5.36,28.21.57,1.51,1.87,2.42,4.53,1.41,12.16-4.6,19.68-11.86,17.52-17.57-.63-1.66-2.81-3.01-4.43-2.4-2.4.91-3.56,5.42-8.72,7.38-2.46.93-4.14.11-4.97-2.08-2.88-7.61,4.06-14.82,1.81-20.77-1.35-3.56-4.19-4.44-7.48-3.19Z"/>
      <path d="M1825.26,319.82c-.2-.53-.63-.79-1.11-.61-.9.34-1.06,1.52-1.7,2.93-.33.73-2.12,3.27-4.24,4.08-.98.37-2.65.4-3.13-.87-1.27-3.35,10.88-3.32,6.48-14.96-2.38-6.29-6.69-8.67-12.61-6.43-8.57,3.24-9.96,9.42-6.95,17.38,3.32,8.78,9.46,13.17,17.06,10.3,4.33-1.64,8.4-6.03,6.21-11.82ZM1812.58,320.23c-.51-1.35.38-3.18,2.91-4.14,1.1-.42,2.61-.38,3.11.92.63,1.67-1.73,3.08-3.94,3.92-1.02.39-1.82-.01-2.08-.7Z"/>
      <path d="M1736.11,306.04c.78-.28.92-.98.66-1.69-.17-.48-.5-.98-.64-1.38-.66-1.88.69-3.16-.33-6.03-.39-1.09-2.03-2.24-4-1.54-2.22.78-2.68,3.6-1.89,5.85.99,2.8,4.11,5.53,6.19,4.8Z"/>
      <path d="M1740.54,293.05c1.54-.55,2.17-2.45,3.11-2.79,1.79-.64,3.48,4.27,4.16,6.21,2.38,6.73-1.28,9.71.75,15.44,1.27,3.59,4.98,5.19,9.07,3.75,5.03-1.78,5.69-4.82,4.39-8.51-2.15-6.08-4.67-5.75-6.22-10.14-2.29-6.48-2.47-12.2-3.71-15.69-.88-2.49-2.43-4.19-5.57-3.07-2.99,1.06-2.8,2.39-5.32,4.91-2.71,2.81-6.89,3.05-5.35,7.39.81,2.29,3.5,2.91,4.69,2.49Z"/>
      <path d="M1769.35,306.06c2.53-.89,5.11-3.46,7.39-4.26,1.06-.38,2.51-.43,2.95.79.33.94.12,2.43.48,3.45.32.9,1.27,1.66,4.5.52,1.51-.53,3.6-2.01,2.98-3.76-.23-.65-.83-1.31-1.06-1.97-1.11-3.14,5.7-1.38,3.28-8.22-.72-2.04-1.9-3.68-3.17-3.24-.61.22-1.12.85-1.69,1.06-1.3.46-2.17-1.34-2.78-3.05-1.27-3.58-.89-7.43-1.68-9.68-.69-1.95-2.57-2.21-4.52-1.52-2.12.75-4.32,2.68-5.35,4.83-1.32,2.76-1.09,6.25-2.47,10.64-1.1,3.51-4.29,9.64-3.16,12.81.65,1.83,2.65,2.18,4.32,1.59ZM1774.91,285.88c1.26-.45,2,.99,2.32,1.89,1.2,3.38.33,5.21-1.83,5.97-2.12.75-3.29.29-3.62-.65-.53-1.51.77-6.37,3.13-7.21Z"/>
    </g>
    <g>
      <path d="M1116.89,288.17c-13.47,0-24.39,10.92-24.39,24.39s10.92,24.39,24.39,24.39,24.39-10.92,24.39-24.39-10.92-24.39-24.39-24.39ZM1124.04,295.88c2.06.07,4.01,1.41,3.89,4.78-.03.8-.8,4.28-3.92,4.17-1.99-.07-3.7-1.91-3.59-5.02.08-2.17,1.52-4,3.62-3.93ZM1112.28,295.46c2.06.07,4.01,1.41,3.89,4.78-.03.8-.84,4.28-3.92,4.17-1.99-.07-3.7-1.91-3.59-5.02.08-2.17,1.52-4,3.62-3.93ZM1130.06,326.28c-.21,5.82-4.08,6.74-12.98,6.42-9.51-.34-13.92-2.89-13.76-7.37.09-2.64,1.95-5,2.59-5.63.41-.38,1.76-1.67,1.81-2.91.08-2.28-3.96-1.84-3.84-5.13.05-1.41,1.23-1.84,1.77-1.82.58.02,1.08.18,1.82.86,1.23,1.09,3.45,1.65,10.33,1.89,5.35.19,8.09-.36,9.43-1.26.63-.41,1.22-.61,1.72-.59.87.03,1.57.6,1.53,1.79-.02.62-.26,1.22-.71,1.68-1.58,1.61-2.39,1.91-2.44,3.36-.09,2.53,2.85,5.36,2.73,8.72Z"/>
      <path d="M1122.94,316.53c-1.16-.04-2.77.41-4.65.34-1.85-.07-3.46-.6-4.69-.64-1.34-.05-2.48.46-2.56,2.59-.11,2.97,3.22,4.24,6.69,4.37,4.56.16,6.85-1.02,6.95-4.03.07-1.88-.49-2.59-1.75-2.63Z"/>
    </g>
  </g>
  <text class="cls-10" transform="translate(1136.08 976.07)"><tspan x="0" y="0">ST. </tspan><tspan class="cls-9" x="101.37" y="0">L</tspan><tspan x="126.29" y="0">o</tspan><tspan class="cls-6" x="155.95" y="0">u</tspan><tspan x="201.24" y="0">is Style Pizza</tspan></text>
</svg>